<?xml version="1.0" encoding="UTF-8"?>
<svg width="210mm" height="120mm" version="1.1" viewBox="0 0 210 120" xmlns="http://www.w3.org/2000/svg" xmlns:cc="http://creativecommons.org/ns#" xmlns:dc="http://purl.org/dc/elements/1.1/" xmlns:rdf="http://www.w3.org/1999/02/22-rdf-syntax-ns#">
<metadata>
<rdf:RDF>
<cc:Work rdf:about="">
<dc:format>image/svg+xml</dc:format>
<dc:type rdf:resource="http://purl.org/dc/dcmitype/StillImage"/>
<dc:title/>
</cc:Work>
</rdf:RDF>
</metadata>
<g transform="translate(0,-90)" fill="#063776">
<path d="m104.29 167.77a12.963 34.879 0 0 0 -8.061 7.6404 12.963 34.879 0 0 1 0.20102 -0.33228 12.963 34.879 0 0 1 1.1663 -1.5198 12.963 34.879 0 0 1 1.2165 -1.1994 12.963 34.879 0 0 1 1.2552 -0.86609 12.963 34.879 0 0 1 1.2811 -0.52504 12.963 34.879 0 0 1 1.294 -0.17828 12.963 34.879 0 0 1 0.14004 2e-3 12.963 34.879 0 0 1 1.2935 0.2129 12.963 34.879 0 0 1 1.279 0.55914 12.963 34.879 0 0 1 1.2516 0.90021 12.963 34.879 0 0 1 1.2123 1.232 12.963 34.879 0 0 1 1.1601 1.5513 12.963 34.879 0 0 1 1.0971 1.8552 12.963 34.879 0 0 1 1.0227 2.1404 12.963 34.879 0 0 1 0.93844 2.4045 12.963 34.879 0 0 1 0.8444 2.6448 12.963 34.879 0 0 1 0.74155 2.8582 12.963 34.879 0 0 1 0.63252 3.0432 12.963 34.879 0 0 1 0.51573 3.1977 12.963 34.879 0 0 1 0.39533 3.3207 12.963 34.879 0 0 1 0.26975 3.4101 12.963 34.879 0 0 1 0.0811 1.9864 18.709 20.312 0 0 0 0.49816 -0.38654 18.709 20.312 0 0 0 1.2092 -1.1539 12.963 34.879 0 0 0 -12.936 -32.798z" style="paint-order:stroke fill markers"/>
<path d="m103.43 168.22a12.963 34.879 0 0 0 -8.061 7.6404 12.963 34.879 0 0 1 0.20102 -0.33228 12.963 34.879 0 0 1 1.1663 -1.5198 12.963 34.879 0 0 1 1.2165 -1.1994 12.963 34.879 0 0 1 1.2552 -0.8661 12.963 34.879 0 0 1 1.2811 -0.52503 12.963 34.879 0 0 1 1.294 -0.17828 12.963 34.879 0 0 1 0.14004 2e-3 12.963 34.879 0 0 1 1.2935 0.2129 12.963 34.879 0 0 1 1.279 0.55914 12.963 34.879 0 0 1 1.2516 0.9002 12.963 34.879 0 0 1 1.2123 1.232 12.963 34.879 0 0 1 1.1601 1.5513 12.963 34.879 0 0 1 1.0971 1.8552 12.963 34.879 0 0 1 1.0227 2.1404 12.963 34.879 0 0 1 0.93845 2.4045 12.963 34.879 0 0 1 0.84439 2.6448 12.963 34.879 0 0 1 0.74156 2.8582 12.963 34.879 0 0 1 0.63251 3.0432 12.963 34.879 0 0 1 0.51573 3.1977 12.963 34.879 0 0 1 0.39533 3.3207 12.963 34.879 0 0 1 0.26975 3.4101 12.963 34.879 0 0 1 0.0811 1.9864 18.709 20.312 0 0 0 0.49816 -0.38654 18.709 20.312 0 0 0 1.2092 -1.1539 12.963 34.879 0 0 0 -12.936 -32.798z" style="paint-order:stroke fill markers"/>
</g>
<g transform="translate(0,-177)">
<path d="m115.51 289.11a12.963 34.879 0 0 0 -0.0811 -1.9864 12.963 34.879 0 0 0 -0.26975 -3.4101 12.963 34.879 0 0 0 -0.39533 -3.3207 12.963 34.879 0 0 0 -0.51573 -3.1977 12.963 34.879 0 0 0 -0.63252 -3.0432 12.963 34.879 0 0 0 -0.74156 -2.8582 12.963 34.879 0 0 0 -0.84439 -2.6448 12.963 34.879 0 0 0 -0.93844 -2.4045 12.963 34.879 0 0 0 -1.0227 -2.1404 12.963 34.879 0 0 0 -1.0971 -1.8552 12.963 34.879 0 0 0 -1.1601 -1.5513 12.963 34.879 0 0 0 -1.2123 -1.232 12.963 34.879 0 0 0 -1.2516 -0.9002 12.963 34.879 0 0 0 -1.279 -0.55914 12.963 34.879 0 0 0 -1.2935 -0.21291 12.963 34.879 0 0 0 -0.14005 -2e-3 12.963 34.879 0 0 0 -1.294 0.17828 12.963 34.879 0 0 0 -1.2811 0.52503 12.963 34.879 0 0 0 -1.2552 0.8661 12.963 34.879 0 0 0 -1.2165 1.1994 12.963 34.879 0 0 0 -1.1663 1.5198 12.963 34.879 0 0 0 -0.20102 0.33228 12.963 34.879 0 0 0 -4.8591 24.961 18.709 20.312 0 0 0 0.96377 0.97462 18.709 20.312 0 0 0 1.4888 1.2289 18.709 20.312 0 0 0 1.5947 1.0609 18.709 20.312 0 0 0 1.6836 0.88315 18.709 20.312 0 0 0 1.757 0.6966 18.709 20.312 0 0 0 1.8118 0.50229 18.709 20.312 0 0 0 1.849 0.30335 18.709 20.312 0 0 0 1.8681 0.10128 18.709 20.312 0 0 0 1.3234 -0.0506 18.709 20.312 0 0 0 1.8562 -0.24495 18.709 20.312 0 0 0 1.8247 -0.44442 18.709 20.312 0 0 0 1.7751 -0.64027 18.709 20.312 0 0 0 1.7069 -0.8294 18.709 20.312 0 0 0 1.6221 -1.0103 18.709 20.312 0 0 0 1.0232 -0.79427z" fill="#006581" style="paint-order:stroke fill markers"/>
<path d="m108.2 264.53a17.373 17.373 0 0 0 11.187 -10.467 16.036 10.424 0 0 0 -0.15607 -0.83715 16.036 10.424 0 0 0 -0.3514 -1.0165 16.036 10.424 0 0 0 -0.50539 -0.98909 16.036 10.424 0 0 0 -0.65474 -0.95084 16.036 10.424 0 0 0 -0.79737 -0.90382 16.036 10.424 0 0 0 -0.93276 -0.8475 16.036 10.424 0 0 0 -1.0578 -0.78289 16.036 10.424 0 0 0 -0.93637 -0.56689 16.551 13.943 0 0 1 0.39842 0.75034 16.551 13.943 0 0 1 0.52193 1.3224 16.551 13.943 0 0 1 0.36226 1.3601 16.551 13.943 0 0 1 0.19947 1.3834 16.551 13.943 0 0 1 0.0413 0.9865 16.551 13.943 0 0 1 -0.0827 1.3922 16.551 13.943 0 0 1 -0.24702 1.3777 16.551 13.943 0 0 1 -0.40927 1.3503 16.551 13.943 0 0 1 -0.56741 1.3095 16.551 13.943 0 0 1 -0.71985 1.2552 16.551 13.943 0 0 1 -0.86455 1.188 16.551 13.943 0 0 1 -1.0015 1.1095 16.551 13.943 0 0 1 -1.1276 1.0196 16.551 13.943 0 0 1 -1.2428 0.91984 16.551 13.943 0 0 1 -1.0563 0.63666z" fill="#ffb380" style="paint-order:stroke fill markers"/>
</g>
<g transform="translate(0,-90)">
<path d="m109.67 177.17a17.373 17.373 0 0 0 11.187 -10.467 16.036 10.424 0 0 0 -0.15606 -0.83715 16.036 10.424 0 0 0 -0.3514 -1.0165 16.036 10.424 0 0 0 -0.5054 -0.98909 16.036 10.424 0 0 0 -0.65474 -0.95084 16.036 10.424 0 0 0 -0.79737 -0.90382 16.036 10.424 0 0 0 -0.93276 -0.8475 16.036 10.424 0 0 0 -1.0578 -0.78289 16.036 10.424 0 0 0 -0.93638 -0.56689 16.551 13.943 0 0 1 0.39842 0.75034 16.551 13.943 0 0 1 0.52194 1.3224 16.551 13.943 0 0 1 0.36225 1.3601 16.551 13.943 0 0 1 0.19947 1.3834 16.551 13.943 0 0 1 0.0413 0.9865 16.551 13.943 0 0 1 -0.0827 1.3922 16.551 13.943 0 0 1 -0.24702 1.3777 16.551 13.943 0 0 1 -0.40927 1.3503 16.551 13.943 0 0 1 -0.56741 1.3095 16.551 13.943 0 0 1 -0.71985 1.2552 16.551 13.943 0 0 1 -0.86455 1.188 16.551 13.943 0 0 1 -1.0015 1.1095 16.551 13.943 0 0 1 -1.1276 1.0196 16.551 13.943 0 0 1 -1.2428 0.91984 16.551 13.943 0 0 1 -1.0563 0.63666z" fill="#ffb380" style="paint-order:stroke fill markers"/>
<path d="m109.67 177.17a16.551 13.943 0 0 0 1.0563 -0.63666 16.551 13.943 0 0 0 1.2428 -0.91984 16.551 13.943 0 0 0 1.1276 -1.0196 16.551 13.943 0 0 0 1.0015 -1.1095 16.551 13.943 0 0 0 0.86455 -1.188 16.551 13.943 0 0 0 0.71985 -1.2552 16.551 13.943 0 0 0 0.56741 -1.3095 16.551 13.943 0 0 0 0.40927 -1.3503 16.551 13.943 0 0 0 0.24702 -1.3777 16.551 13.943 0 0 0 0.0827 -1.3922 16.551 13.943 0 0 0 -0.0413 -0.9865 16.551 13.943 0 0 0 -0.19947 -1.3834 16.551 13.943 0 0 0 -0.36225 -1.3601 16.551 13.943 0 0 0 -0.52194 -1.3224 16.551 13.943 0 0 0 -0.39842 -0.75034 16.036 10.424 0 0 0 -0.23616 -0.14315 16.036 10.424 0 0 0 -1.2764 -0.63045 16.036 10.424 0 0 0 -1.3663 -0.54467 16.036 10.424 0 0 0 -1.4433 -0.4532 16.036 10.424 0 0 0 -1.5058 -0.35709 16.036 10.424 0 0 0 -1.5534 -0.25786 16.036 10.424 0 0 0 -1.5849 -0.15555 16.036 10.424 0 0 0 -1.6009 -0.0522 16.036 10.424 0 0 0 -1.1343 0.0258 16.036 10.424 0 0 0 -1.5911 0.12557 16.036 10.424 0 0 0 -1.5642 0.22841 16.036 10.424 0 0 0 -1.5208 0.32866 16.036 10.424 0 0 0 -1.4635 0.4253 16.036 10.424 0 0 0 -1.3901 0.51831 16.036 10.424 0 0 0 -1.3038 0.60617 16.036 10.424 0 0 0 -1.2046 0.68781 16.036 10.424 0 0 0 -1.0924 0.76223 16.036 10.424 0 0 0 -0.96996 0.82941 16.036 10.424 0 0 0 -0.83819 0.88831 16.036 10.424 0 0 0 -0.69712 0.93845 16.036 10.424 0 0 0 -0.54984 0.97875 16.036 10.424 0 0 0 -0.39636 1.0092 16.036 10.424 0 0 0 -0.23978 1.0304 16.036 10.424 0 0 0 -0.0801 1.0408 16.036 10.424 0 0 0 0.0098 0.17829 17.373 17.373 0 0 0 15.759 10.112 17.373 17.373 0 0 0 5.039 -0.75809z" fill="#e9c6af" style="paint-order:stroke fill markers"/>
<rect x="101.47" y="164.17" width="5.7313" height="1.5419" ry=".77096" style="paint-order:stroke fill markers"/>
</g>
<g transform="translate(0,-90)" fill="#f9f9f9" stroke="#000" stroke-linecap="round" stroke-linejoin="round" stroke-width="1.065">
<rect x="95.787" y="164.69" width="7.5595" height="7.1343" ry="1.0691" style="paint-order:stroke fill markers"/>
<rect x="105.31" y="164.69" width="7.5595" height="7.1343" ry="1.0691" style="paint-order:stroke fill markers"/>
</g>
<g transform="translate(0,-90)">
<rect x="100.36" y="165.63" width="2.1382" height="5.479" ry="1.0691" style="paint-order:stroke fill markers"/>
<rect x="106.11" y="165.5" width="2.1382" height="5.479" ry="1.0691" style="paint-order:stroke fill markers"/>
</g>
<g transform="translate(0,-90)">
<path d="m104.64 143.18a17.373 17.373 0 0 0 -17.373 17.373 17.373 17.373 0 0 0 1.6133 7.261 16.036 10.424 0 0 1 -0.0098 -0.17828 16.036 10.424 0 0 1 0.0801 -1.0408 16.036 10.424 0 0 1 0.23978 -1.0304 16.036 10.424 0 0 1 0.39636 -1.0092 16.036 10.424 0 0 1 0.54984 -0.97875 16.036 10.424 0 0 1 0.69712 -0.93845 16.036 10.424 0 0 1 0.83819 -0.88831 16.036 10.424 0 0 1 0.96996 -0.82941 16.036 10.424 0 0 1 1.0924 -0.76223 16.036 10.424 0 0 1 1.2046 -0.68781 16.036 10.424 0 0 1 1.3038 -0.60617 16.036 10.424 0 0 1 1.3901 -0.51831 16.036 10.424 0 0 1 1.4635 -0.4253 16.036 10.424 0 0 1 1.5208 -0.32866 16.036 10.424 0 0 1 1.5642 -0.22841 16.036 10.424 0 0 1 1.5911 -0.12557 16.036 10.424 0 0 1 1.1343 -0.0258 16.036 10.424 0 0 1 1.6009 0.0522 16.036 10.424 0 0 1 1.5849 0.15555 16.036 10.424 0 0 1 1.5534 0.25786 16.036 10.424 0 0 1 1.5059 0.35709 16.036 10.424 0 0 1 1.4433 0.4532 16.036 10.424 0 0 1 1.3663 0.54467 16.036 10.424 0 0 1 1.2764 0.63045 16.036 10.424 0 0 1 1.1725 0.71004 16.036 10.424 0 0 1 1.0578 0.78289 16.036 10.424 0 0 1 0.93276 0.8475 16.036 10.424 0 0 1 0.79736 0.90382 16.036 10.424 0 0 1 0.65474 0.95084 16.036 10.424 0 0 1 0.5054 0.98909 16.036 10.424 0 0 1 0.3514 1.0165 16.036 10.424 0 0 1 0.15606 0.83715 17.373 17.373 0 0 0 1.1462 -6.1479 17.373 17.373 0 0 0 -17.373 -17.373z" fill="#2b1100" style="paint-order:stroke fill markers"/>
<ellipse cx="88.733" cy="158.95" rx="2.8063" ry="4.1427" fill="#2b1100" style="paint-order:stroke fill markers"/>
<ellipse cx="89.803" cy="153.14" rx="2.8063" ry="2.8731" fill="#2b1100" style="paint-order:stroke fill markers"/>
<ellipse cx="91.406" cy="148.53" rx="2.94" ry="3.6081" fill="#2b1100" style="paint-order:stroke fill markers"/>
<ellipse cx="96.017" cy="145.52" rx="4.0759" ry="3.2741" fill="#2b1100" style="paint-order:stroke fill markers"/>
<ellipse cx="103.1" cy="143.05" rx="4.0759" ry="2.8063" fill="#2b1100" style="paint-order:stroke fill markers"/>
<ellipse cx="110.32" cy="143.92" rx="3.5413" ry="2.7395" fill="#2b1100" style="paint-order:stroke fill markers"/>
<ellipse cx="115.59" cy="146.72" rx="3.0736" ry="3.1404" fill="#2b1100" style="paint-order:stroke fill markers"/>
<ellipse cx="118.8" cy="151.33" rx="2.94" ry="3.2072" fill="#2b1100" style="paint-order:stroke fill markers"/>
<ellipse cx="120.07" cy="153.47" rx="2.4722" ry="2.6727" fill="#2b1100" style="paint-order:stroke fill markers"/>
<ellipse cx="120.67" cy="158.22" rx="2.4054" ry="3.8086" fill="#2b1100" style="paint-order:stroke fill markers"/>
<ellipse cx="122.14" cy="160.89" rx="1.2027" ry="2.6059" fill="#2b1100" style="paint-order:stroke fill markers"/>
<path transform="rotate(117.47 70.722 139.5)" d="m75.624 105.83c0.2164 0.10305 0.25567 0.38458 0.15331 0.58184-0.17168 0.33085-0.60848 0.38673-0.91337 0.21765-0.48528-0.26911-0.56219-0.91848-0.29838-1.3696 0.40231-0.68801 1.3342-0.791 1.9784-0.39759 0.94807 0.57895 1.0829 1.8773 0.51742 2.7704-0.36776 0.58083-0.98375 0.97194-1.6552 1.0998" fill="none" stroke="#2b1100" stroke-linecap="round" stroke-width="1.665"/>
<path d="m117.05 164.1c-0.11165-0.38508 0.19669-0.74704 0.55707-0.83828 0.60443-0.15303 1.1597 0.33098 1.2872 0.90007 0.20283 0.90578-0.52357 1.7236-1.3808 1.8951-1.3072 0.26159-2.4717-0.78908-2.6957-2.0317-0.32975-1.8287 1.1437-3.4401 2.8886-3.7256 1.1348-0.18568 2.3084 0.14981 3.2144 0.84712" fill="#2b1100" fill-rule="evenodd" stroke="#2b1100" stroke-width=".73922"/>
<path transform="rotate(117.47 65.512 140.3)" d="m75.624 105.83c0.2164 0.10305 0.25567 0.38458 0.15331 0.58184-0.17168 0.33085-0.60848 0.38673-0.91337 0.21765-0.48528-0.26911-0.56219-0.91848-0.29838-1.3696 0.40231-0.68801 1.3342-0.791 1.9784-0.39759 0.94807 0.57895 1.0829 1.8773 0.51742 2.7704-0.36776 0.58083-0.98375 0.97194-1.6552 1.0998" fill="none" stroke="#2b1100" stroke-linecap="round" stroke-width="1.665"/>
<path transform="rotate(117.47 67.721 138.4)" d="m75.624 105.83c0.2164 0.10305 0.25567 0.38458 0.15331 0.58184-0.17168 0.33085-0.60848 0.38673-0.91337 0.21765-0.48528-0.26911-0.56219-0.91848-0.29838-1.3696 0.40231-0.68801 1.3342-0.791 1.9784-0.39759 0.94807 0.57895 1.0829 1.8773 0.51742 2.7704-0.36776 0.58083-0.98375 0.97194-1.6552 1.0998" fill="none" stroke="#2b1100" stroke-linecap="round" stroke-width="1.665"/>
<path transform="matrix(-1.0183 .52942 .52942 1.0183 127.93 7.9471)" d="m75.624 105.83c0.2164 0.10305 0.25567 0.38458 0.15331 0.58184-0.17168 0.33085-0.60848 0.38673-0.91337 0.21765-0.48528-0.26911-0.56219-0.91848-0.29838-1.3696 0.40231-0.68801 1.3342-0.791 1.9784-0.39759 0.94807 0.57895 1.0829 1.8773 0.51742 2.7704-0.36776 0.58083-0.98375 0.97194-1.6552 1.0998" fill="none" stroke="#2b1100" stroke-linecap="round" stroke-width="1.665"/>
<path transform="matrix(-.4982 .95823 -.95823 -.4982 252.81 139.41)" d="m75.624 105.83c0.2164 0.10305 0.25567 0.38458 0.15331 0.58184-0.17168 0.33085-0.60848 0.38673-0.91337 0.21765-0.48528-0.26911-0.56219-0.91848-0.29838-1.3696 0.40231-0.68801 1.3342-0.791 1.9784-0.39759 0.94807 0.57895 1.0829 1.8773 0.51742 2.7704-0.36776 0.58083-0.98375 0.97194-1.6552 1.0998" fill="none" stroke="#2b1100" stroke-linecap="round" stroke-width="1.665"/>
<ellipse cx="119.99" cy="163.93" rx=".70871" ry=".8032" fill="#2b1100" stroke="#2b1100" stroke-linecap="round" stroke-linejoin="round" stroke-width="1.665" style="paint-order:stroke fill markers"/>
<ellipse cx="101.9" cy="156.81" rx="1.6704" ry=".60136" fill="#2b1100" stroke="#2b1100" stroke-linecap="round" stroke-linejoin="round" stroke-width="1.665" style="paint-order:stroke fill markers"/>
<ellipse cx="90.073" cy="163.09" rx="1.3639" ry="2.0873" fill="#2b1100" style="paint-order:stroke fill markers"/>
<ellipse cx="95.23" cy="158.22" rx="1.7481" ry="1.6536" fill="#2b1100" style="paint-order:stroke fill markers"/>
<ellipse cx="99.104" cy="156.97" rx="2.0316" ry="1.2993" fill="#2b1100" style="paint-order:stroke fill markers"/>
<ellipse cx="109.45" cy="157.03" rx="2.5028" ry="1.2829" fill="#2b1100" style="paint-order:stroke fill markers"/>
<ellipse cx="116.21" cy="159.52" rx="1.0394" ry="1.441" fill="#2b1100" style="paint-order:stroke fill markers"/>
</g>
</svg>
